<svg width="271" height="272" fill="none" xmlns="http://www.w3.org/2000/svg"><g opacity=".5" stroke="#04A96A" stroke-width="2"><path d="m86.915 82.517.906 1.837a2 2 0 0 0 1.506 1.094l2.026.294-1.466 1.43a2 2 0 0 0-.575 1.77l.346 2.018-1.813-.953a2 2 0 0 0-1.861 0l-1.812.953.346-2.018a2 2 0 0 0-.576-1.77l-1.466-1.43 2.027-.294a2 2 0 0 0 1.505-1.094l.907-1.837ZM72.863 100.101l1.43 1.467c.459.471 1.12.686 1.77.575l2.018-.346-.953 1.812a2 2 0 0 0 0 1.861l.953 1.813-2.019-.346a1.999 1.999 0 0 0-1.77.575l-1.43 1.466-.293-2.026a1.999 1.999 0 0 0-1.095-1.506l-1.836-.906 1.836-.906c.59-.292 1-.855 1.094-1.506l.295-2.027ZM64.933 121.167l1.812.953a2.002 2.002 0 0 0 1.861 0l1.813-.953-.346 2.018a2.002 2.002 0 0 0 .575 1.771l1.466 1.429-2.026.294a2.002 2.002 0 0 0-1.506 1.094l-.906 1.837-.906-1.837a2.001 2.001 0 0 0-1.506-1.094l-2.027-.294 1.467-1.429c.471-.46.686-1.122.575-1.771l-.346-2.018ZM63.9 143.652l2.018.347a2 2 0 0 0 1.77-.576l1.43-1.466.294 2.026a1.999 1.999 0 0 0 1.094 1.506l1.837.907-1.837.906c-.59.291-.999.854-1.094 1.506l-.294 2.026-1.43-1.466a1.996 1.996 0 0 0-1.77-.575l-2.018.346.953-1.813a2 2 0 0 0 0-1.861l-.953-1.813ZM69.867 165.356l2.026-.294a2.001 2.001 0 0 0 1.506-1.094l.906-1.836.906 1.836c.292.59.855.999 1.506 1.094l2.026.294-1.466 1.43a1.999 1.999 0 0 0-.575 1.77l.346 2.018-1.812-.953a2.002 2.002 0 0 0-1.862 0l-1.812.953.346-2.018a2 2 0 0 0-.575-1.77l-1.466-1.43ZM82.248 184.154l1.836-.906a2 2 0 0 0 1.094-1.506l.295-2.026 1.429 1.466c.46.471 1.121.686 1.77.575l2.018-.346-.953 1.812a2.001 2.001 0 0 0 0 1.862l.953 1.812-2.018-.346a2.002 2.002 0 0 0-1.77.575l-1.43 1.467-.294-2.027a2.002 2.002 0 0 0-1.094-1.506l-1.836-.906ZM99.832 198.206l1.466-1.429c.472-.46.687-1.122.575-1.771l-.346-2.018 1.813.953a2.001 2.001 0 0 0 1.861 0l1.813-.953-.347 2.018a2.001 2.001 0 0 0 .576 1.771l1.466 1.429-2.026.294a2 2 0 0 0-1.506 1.094l-.907 1.837-.906-1.837a2 2 0 0 0-1.506-1.094l-2.026-.294ZM120.898 206.136l.953-1.812a2.003 2.003 0 0 0 0-1.862l-.953-1.812 2.018.346a2 2 0 0 0 1.77-.575l1.429-1.466.295 2.026a2 2 0 0 0 1.094 1.506l1.836.906-1.836.906c-.59.292-1 .855-1.094 1.506l-.295 2.027-1.429-1.467a2 2 0 0 0-1.77-.575l-2.018.346ZM143.383 207.169l.346-2.019a2.002 2.002 0 0 0-.575-1.77l-1.466-1.429 2.026-.295a1.997 1.997 0 0 0 1.506-1.094l.906-1.836.906 1.836c.292.591.855 1 1.506 1.094l2.027.295-1.467 1.429a2.002 2.002 0 0 0-.575 1.77l.346 2.019-1.812-.953a1.997 1.997 0 0 0-1.862 0l-1.812.953ZM165.087 201.202l-.294-2.026a1.999 1.999 0 0 0-1.095-1.506l-1.836-.906 1.836-.906c.591-.292 1-.855 1.095-1.506l.294-2.027 1.429 1.467c.46.471 1.122.686 1.77.575l2.019-.346-.953 1.812a2.001 2.001 0 0 0 0 1.861l.953 1.813-2.018-.346a2 2 0 0 0-1.771.575l-1.429 1.466ZM183.885 188.821l-.907-1.836c-.291-.591-.854-1-1.505-1.094l-2.027-.295 1.466-1.429a2 2 0 0 0 .576-1.77l-.346-2.018 1.812.952a1.995 1.995 0 0 0 1.861 0l1.813-.952-.346 2.018c-.112.648.103 1.31.575 1.77l1.466 1.429-2.026.295a1.995 1.995 0 0 0-1.506 1.094l-.906 1.836ZM197.936 171.237l-1.429-1.466a1.998 1.998 0 0 0-1.77-.576l-2.018.347.953-1.813a2.001 2.001 0 0 0 0-1.861l-.953-1.813 2.018.346a1.995 1.995 0 0 0 1.77-.575l1.429-1.466.295 2.026a2 2 0 0 0 1.094 1.506l1.836.906-1.836.907a2 2 0 0 0-1.094 1.506l-.295 2.026ZM205.867 150.171l-1.813-.953a2.001 2.001 0 0 0-1.861 0l-1.813.953.347-2.018a1.998 1.998 0 0 0-.576-1.77l-1.466-1.43 2.026-.294a2 2 0 0 0 1.506-1.094l.907-1.836.906 1.836a2 2 0 0 0 1.506 1.094l2.026.294-1.466 1.43a1.995 1.995 0 0 0-.575 1.77l.346 2.018ZM206.899 127.686l-2.018-.346a1.998 1.998 0 0 0-1.77.575l-1.43 1.466-.294-2.026a2 2 0 0 0-1.094-1.506l-1.836-.906 1.836-.906c.59-.292.999-.855 1.094-1.506l.294-2.027 1.43 1.467a2 2 0 0 0 1.77.575l2.018-.346-.953 1.812a2.001 2.001 0 0 0 0 1.861l.953 1.813ZM200.933 105.982l-2.027.294a2 2 0 0 0-1.505 1.094l-.907 1.837-.906-1.837a2 2 0 0 0-1.506-1.094l-2.026-.294 1.466-1.429c.472-.46.687-1.122.575-1.771l-.346-2.018 1.813.953a2.001 2.001 0 0 0 1.861 0l1.812-.953-.346 2.018a2.003 2.003 0 0 0 .575 1.771l1.467 1.429ZM188.552 87.184l-1.837.907c-.59.29-.999.854-1.094 1.505l-.294 2.027-1.429-1.467a2.002 2.002 0 0 0-1.771-.575l-2.018.346.953-1.812a2.002 2.002 0 0 0 0-1.861l-.953-1.813 2.018.346a2.002 2.002 0 0 0 1.771-.575l1.429-1.466.294 2.026a2.001 2.001 0 0 0 1.094 1.506l1.837.906ZM170.968 73.132l-1.467 1.43a2.002 2.002 0 0 0-.575 1.77l.346 2.018-1.812-.953a2.001 2.001 0 0 0-1.862 0l-1.812.953.346-2.018a2.002 2.002 0 0 0-.575-1.77l-1.466-1.43 2.026-.294a2 2 0 0 0 1.506-1.094l.906-1.836.906 1.836c.292.59.855 1 1.506 1.094l2.027.294ZM149.902 65.202l-.953 1.813a1.996 1.996 0 0 0 0 1.86l.953 1.813-2.019-.346a2.001 2.001 0 0 0-1.77.575l-1.429 1.467-.295-2.027a1.997 1.997 0 0 0-1.094-1.505l-1.836-.907 1.836-.906c.591-.291 1-.854 1.094-1.506l.295-2.026 1.429 1.466a2 2 0 0 0 1.77.575l2.019-.346ZM127.416 64.17l-.346 2.018c-.111.649.104 1.31.575 1.77l1.467 1.43-2.027.294a2.002 2.002 0 0 0-1.506 1.094l-.906 1.836-.906-1.836c-.291-.59-.854-1-1.506-1.094l-2.026-.295 1.466-1.429c.471-.46.687-1.121.575-1.77l-.346-2.018 1.813.953a1.999 1.999 0 0 0 1.861 0l1.812-.953ZM105.713 70.136l.294 2.026a2.002 2.002 0 0 0 1.094 1.506l1.836.906-1.836.907c-.59.291-.999.854-1.094 1.506l-.294 2.026-1.43-1.466a1.999 1.999 0 0 0-1.77-.575l-2.018.346.953-1.813a2.002 2.002 0 0 0 0-1.861l-.953-1.813 2.018.346a1.999 1.999 0 0 0 1.77-.575l1.43-1.466Z"/></g><g opacity=".3" fill="#04925B"><path d="M67.978 77.312a8.685 8.685 0 0 0 6.942-3.44.489.489 0 0 0-.53-.759c-4.276 1.409-8.915-1.98-8.841-6.493a6.831 6.831 0 0 1 3.366-5.863.49.49 0 0 0-.206-.904 8.763 8.763 0 0 0-.73-.036c-11.605.48-11.602 17.016 0 17.495h-.001Zm-.803-16.482c-5.58 5.002-1.484 14.28 5.984 13.524-4.89 4.483-13.01.86-12.957-5.79a7.785 7.785 0 0 1 6.973-7.734Z"/><path d="M68.002 64.645a.486.486 0 0 0 .138.512l2.38 2.128-.675 3.12a.486.486 0 0 0 .72.523l2.76-1.605 2.758 1.605a.485.485 0 0 0 .72-.523l-.674-3.12 2.379-2.128a.486.486 0 0 0-.275-.846l-3.176-.323-1.288-2.92a.486.486 0 0 0-.89 0l-1.288 2.92-3.176.323a.487.487 0 0 0-.413.334Zm3.969.282a.487.487 0 0 0 .395-.288l.958-2.17.958 2.17c.07.16.222.27.395.288l2.362.24-1.77 1.583a.486.486 0 0 0-.15.464l.501 2.32c-.115-.04-2.226-1.368-2.296-1.26-.066-.11-2.187 1.224-2.296 1.26l.501-2.32a.486.486 0 0 0-.15-.464l-1.77-1.583 2.362-.24ZM51.973 103.934a8.684 8.684 0 0 0 5.347-5.607.489.489 0 0 0-.759-.531c-3.535 2.786-9.053 1.188-10.528-3.078a6.831 6.831 0 0 1 1.158-6.66.49.49 0 0 0-.503-.78 8.713 8.713 0 0 0-.699.216c-10.74 4.42-5.082 19.958 5.984 16.44ZM45.58 88.721c-3.532 6.609 3.49 13.927 10.25 10.662-3.064 5.885-11.933 5.257-14.157-1.01a7.785 7.785 0 0 1 3.907-9.652Z"/><path d="M47.663 92.023a.486.486 0 0 0 .305.434l2.964 1.186.434 3.162a.486.486 0 0 0 .854.245l2.044-2.451 3.142.564a.486.486 0 0 0 .498-.737l-1.701-2.702 1.508-2.813a.485.485 0 0 0-.548-.7l-3.095.781-2.21-2.303a.486.486 0 0 0-.835.304l-.212 3.185-2.874 1.39a.486.486 0 0 0-.274.455Zm3.826-1.093a.487.487 0 0 0 .273-.405l.158-2.368 1.643 1.713c.12.126.3.177.47.134l2.3-.582-1.12 2.093a.486.486 0 0 0 .017.488l1.264 2.009c-.122.002-2.56-.525-2.588-.398-.1-.082-1.637 1.897-1.727 1.968l-.323-2.351a.486.486 0 0 0-.3-.385l-2.204-.883 2.137-1.033ZM46.038 134.425a8.687 8.687 0 0 0 3.107-7.098.488.488 0 0 0-.894-.24c-2.37 3.828-8.102 4.213-10.946.709a6.83 6.83 0 0 1-1.19-6.655.49.49 0 0 0-.739-.56c-.198.14-.394.283-.583.442-8.58 7.827 2.05 20.492 11.245 13.402Zm-11.209-12.11c-1.06 7.419 8.042 11.894 13.277 6.514-.865 6.577-9.413 9.021-13.647 3.893a7.785 7.785 0 0 1 .37-10.407Z"/><path d="M37.914 124.706a.486.486 0 0 0 .436.303l3.19.101 1.49 2.824a.485.485 0 0 0 .886-.062l1.082-3.004 3.146-.544a.484.484 0 0 0 .215-.862l-2.522-1.957.454-3.16a.485.485 0 0 0-.753-.471l-2.641 1.794-2.864-1.409a.485.485 0 0 0-.682.572l.89 3.065-2.224 2.289a.487.487 0 0 0-.103.521Zm3.222-2.335a.488.488 0 0 0 .118-.475l-.662-2.279 2.13 1.048a.487.487 0 0 0 .487-.034l1.964-1.334-.338 2.35v-.001a.486.486 0 0 0 .183.453l1.875 1.456c-.114.043-2.584.382-2.568.511-.122-.043-.89 2.343-.95 2.44l-1.107-2.1a.485.485 0 0 0-.414-.258l-2.373-.075 1.655-1.702ZM50.89 165.106a8.685 8.685 0 0 0 .492-7.732.49.49 0 0 0-.922.081c-.918 4.407-6.173 6.729-10.044 4.41a6.832 6.832 0 0 1-3.395-5.847.49.49 0 0 0-.885-.273c-.138.198-.273.4-.397.614-5.386 10.289 8.936 18.555 15.151 8.747Zm-14.675-7.545c1.542 7.333 11.625 8.426 14.705 1.58 1.436 6.477-5.761 11.696-11.493 8.326a7.784 7.784 0 0 1-3.212-9.906Z"/><path d="M39.932 158.752c.13.143.33.196.513.136l3.033-.996 2.365 2.144a.487.487 0 0 0 .812-.362l-.01-3.192 2.769-1.587a.486.486 0 0 0-.093-.884l-3.039-.977-.653-3.124a.485.485 0 0 0-.87-.185l-1.868 2.589-3.173-.344a.485.485 0 0 0-.445.77l1.885 2.576-1.308 2.912a.486.486 0 0 0 .082.524Zm2.228-3.296a.487.487 0 0 0-.05-.486l-1.402-1.915 2.36.256a.49.49 0 0 0 .446-.199l1.389-1.925.486 2.323c.036.171.16.31.326.363l2.26.726c-.091.08-2.297 1.244-2.238 1.359-.129.001-.034 2.506-.057 2.618l-1.76-1.594a.488.488 0 0 0-.477-.102l-2.255.741.972-2.165ZM65.943 192.278a8.686 8.686 0 0 0-2.182-7.434.49.49 0 0 0-.84.392c.645 4.455-3.498 8.434-7.929 7.579a6.833 6.833 0 0 1-5.19-4.334.49.49 0 0 0-.925.046 8.73 8.73 0 0 0-.163.713c-1.542 11.512 14.743 14.38 17.23 3.038Zm-16.37-2.071c3.956 6.364 13.805 3.942 14.357-3.545 3.565 5.595-1.413 12.962-7.952 11.755a7.784 7.784 0 0 1-6.406-8.21Z"/><path d="M53.473 190.055c.17.09.377.072.528-.047l2.51-1.974 2.955 1.206a.485.485 0 0 0 .64-.618l-1.102-2.996 2.06-2.438a.487.487 0 0 0-.39-.8l-3.19.122-1.683-2.712a.484.484 0 0 0-.88.124l-.87 3.071-3.1.762a.486.486 0 0 0-.154.876l2.652 1.776-.233 3.183a.487.487 0 0 0 .257.465Zm.966-3.859a.488.488 0 0 0-.214-.44l-1.972-1.32 2.305-.566v-.001a.485.485 0 0 0 .351-.339l.647-2.284 1.252 2.017a.486.486 0 0 0 .43.23l2.373-.091c-.06.106-1.734 1.954-1.64 2.042-.12.046.826 2.367.842 2.48l-2.198-.896a.485.485 0 0 0-.483.068l-1.866 1.467.173-2.367ZM89.382 212.663a8.685 8.685 0 0 0-4.593-6.239.488.488 0 0 0-.655.655c2.13 3.966-.403 9.122-4.86 9.834a6.834 6.834 0 0 1-6.358-2.297.49.49 0 0 0-.854.359c.022.241.048.483.09.726 2.489 11.345 18.773 8.471 17.23-3.038Zm-16.092 3.653c5.895 4.627 14.322-1.018 12.28-8.242 5.263 4.039 3.105 12.664-3.452 13.766a7.79 7.79 0 0 1-8.828-5.524Z"/><path d="M76.903 214.839a.484.484 0 0 0 .48-.225l1.683-2.713 3.19.123a.487.487 0 0 0 .39-.8l-2.06-2.438 1.101-2.996a.485.485 0 0 0-.64-.618l-2.955 1.205-2.509-1.973a.485.485 0 0 0-.785.417l.233 3.184-2.652 1.776a.486.486 0 0 0 .155.876l3.099.762.87 3.071c.052.185.21.322.4.349Zm-.412-3.957a.488.488 0 0 0-.351-.34l-2.305-.566 1.972-1.321a.486.486 0 0 0 .214-.439l-.173-2.367 1.866 1.467a.485.485 0 0 0 .483.068l2.198-.896c-.019.12-.96 2.429-.841 2.48-.098.084 1.584 1.941 1.639 2.042l-2.372-.091a.487.487 0 0 0-.431.23l-1.252 2.017-.647-2.284ZM118.379 223.802a8.69 8.69 0 0 0-6.45-4.292.488.488 0 0 0-.392.839c3.358 2.999 2.742 8.71-1.202 10.903a6.83 6.83 0 0 1-6.761.017.489.489 0 0 0-.68.63c.103.219.21.437.334.651 6.218 9.809 20.537 1.539 15.151-8.748Zm-13.872 8.936c7.122 2.332 13.109-5.854 8.72-11.944 6.327 1.994 7.249 10.837 1.464 14.116a7.786 7.786 0 0 1-10.184-2.171v-.001Z"/><path d="M107.397 230.115a.486.486 0 0 0 .374-.376l.654-3.124 3.039-.977a.485.485 0 0 0 .093-.884l-2.77-1.587.01-3.192a.486.486 0 0 0-.812-.362l-2.365 2.144-3.033-.996a.485.485 0 0 0-.594.66l1.307 2.912-1.884 2.576a.486.486 0 0 0 .444.771l3.174-.345 1.868 2.589a.485.485 0 0 0 .495.191Zm-1.741-3.578a.488.488 0 0 0-.446-.199l-2.359.256 1.401-1.915a.488.488 0 0 0 .051-.486l-.973-2.165 2.256.74v.001a.486.486 0 0 0 .477-.102l1.759-1.594c.023.12-.072 2.611.057 2.618-.063.112 2.153 1.282 2.239 1.359l-2.26.726a.486.486 0 0 0-.327.363l-.486 2.323-1.389-1.925ZM149.437 224.352a8.684 8.684 0 0 0-7.529-1.827.488.488 0 0 0-.081.922c4.181 1.669 5.556 7.247 2.599 10.657a6.832 6.832 0 0 1-6.348 2.328.49.49 0 0 0-.423.824c.172.171.347.339.537.498 9.197 7.091 19.824-5.578 11.245-13.402Zm-9.979 13.142c7.49-.245 10.317-9.986 4.109-14.207 6.628-.29 10.519 7.705 6.204 12.764a7.789 7.789 0 0 1-10.313 1.443Z"/><path d="M141.276 234.04a.487.487 0 0 0 .224-.481l-.455-3.16 2.522-1.957a.485.485 0 0 0-.215-.862l-3.145-.545-1.083-3.002.001-.001a.488.488 0 0 0-.888-.062l-1.489 2.824-3.19.101a.485.485 0 0 0-.333.824l2.225 2.289-.89 3.065a.487.487 0 0 0 .681.572l2.864-1.409 2.641 1.794a.485.485 0 0 0 .53.01Zm-2.859-2.767a.486.486 0 0 0-.487-.034l-2.13 1.048.662-2.28v.001a.489.489 0 0 0-.118-.475l-1.655-1.702 2.373-.075a.486.486 0 0 0 .414-.259l1.108-2.099c.062.104.825 2.478.949 2.44-.021.128 2.462.469 2.568.511l-1.875 1.456a.485.485 0 0 0-.183.452l.338 2.35-1.964-1.334ZM178.81 214.246a8.684 8.684 0 0 0-7.7.858.489.489 0 0 0 .239.895c4.5.138 7.699 4.909 6.087 9.125a6.83 6.83 0 0 1-5.168 4.358.489.489 0 0 0-.116.92c.22.101.442.199.674.284 11.069 3.518 16.722-12.022 5.984-16.44Zm-4.883 15.762c6.955-2.792 6.28-12.911-.998-14.755 6.13-2.539 12.52 3.642 10.196 9.872a7.786 7.786 0 0 1-9.198 4.883Z"/><path d="M174.455 226.141a.487.487 0 0 0 .045-.529l-1.508-2.813 1.701-2.702a.485.485 0 0 0-.497-.737l-3.142.565-2.044-2.452a.485.485 0 0 0-.855.245l-.434 3.162-2.963 1.186a.485.485 0 0 0-.031.889l2.873 1.39.213 3.185a.484.484 0 0 0 .835.304l2.21-2.303 3.095.782a.488.488 0 0 0 .502-.172Zm-3.633-1.622a.486.486 0 0 0-.47.135l-1.643 1.712-.157-2.368a.488.488 0 0 0-.274-.405l-2.137-1.034 2.204-.882a.487.487 0 0 0 .301-.384l.323-2.352c.094.076 1.623 2.047 1.726 1.968.024.127 2.474-.401 2.588-.398l-1.264 2.009a.484.484 0 0 0-.017.488l1.121 2.093-2.301-.582ZM202.955 194.703a8.686 8.686 0 0 0-6.942 3.44.488.488 0 0 0 .531.759c4.275-1.409 8.914 1.981 8.841 6.493a6.832 6.832 0 0 1-3.366 5.863.49.49 0 0 0 .206.904c.241.02.483.036.73.036 11.604-.48 11.602-17.016 0-17.495Zm.803 16.482c5.58-5.002 1.485-14.281-5.984-13.524 4.891-4.483 13.01-.86 12.957 5.79a7.788 7.788 0 0 1-6.973 7.734Z"/><path d="M202.931 207.371a.489.489 0 0 0-.138-.513l-2.379-2.128.674-3.12a.487.487 0 0 0-.72-.523l-2.759 1.605-2.759-1.604v-.001a.488.488 0 0 0-.72.523l.674 3.12-2.379 2.128a.489.489 0 0 0-.138.513.49.49 0 0 0 .413.333l3.176.323 1.289 2.92a.484.484 0 0 0 .889 0l1.288-2.92 3.176-.323a.49.49 0 0 0 .413-.333Zm-3.968-.282a.487.487 0 0 0-.396.287l-.958 2.171-.958-2.171a.487.487 0 0 0-.395-.287l-2.362-.241 1.769-1.583v.001a.487.487 0 0 0 .151-.465l-.501-2.32c.115.04 2.226 1.368 2.296 1.259.066.111 2.187-1.223 2.296-1.259l-.501 2.32a.487.487 0 0 0 .151.465l1.769 1.583-2.361.24ZM218.96 168.081a8.687 8.687 0 0 0-5.347 5.607.49.49 0 0 0 .759.531c3.535-2.786 9.053-1.187 10.528 3.078a6.83 6.83 0 0 1-1.158 6.661.49.49 0 0 0 .503.779c.233-.064.467-.132.699-.216 10.74-4.42 5.082-19.958-5.984-16.44Zm6.392 15.213c3.532-6.609-3.49-13.927-10.249-10.662 3.063-5.885 11.931-5.257 14.156 1.01a7.789 7.789 0 0 1-3.907 9.652Z"/><path d="M223.27 179.993a.486.486 0 0 0-.305-.434l-2.964-1.187-.433-3.162a.487.487 0 0 0-.855-.245l-2.044 2.452-3.142-.564v-.001a.487.487 0 0 0-.497.737l1.7 2.702-1.507 2.813a.485.485 0 0 0 .547.701l3.095-.782 2.209 2.303a.486.486 0 0 0 .836-.304l.212-3.185 2.874-1.39a.488.488 0 0 0 .274-.454Zm-3.826 1.092a.487.487 0 0 0-.273.405l-.158 2.368-1.643-1.713v.001a.485.485 0 0 0-.469-.135l-2.302.582 1.121-2.093a.487.487 0 0 0-.016-.488l-1.265-2.009c.122-.002 2.559.525 2.588.399.1.081 1.637-1.898 1.727-1.969l.323 2.352c.023.173.138.32.3.384l2.204.883-2.137 1.033ZM224.895 137.59a8.684 8.684 0 0 0-3.107 7.098.488.488 0 0 0 .894.24c2.37-3.828 8.102-4.213 10.946-.709a6.83 6.83 0 0 1 1.191 6.655.488.488 0 0 0 .738.56c.198-.14.394-.283.583-.442 8.581-7.826-2.05-20.492-11.245-13.401v-.001Zm11.209 12.11c1.059-7.418-8.042-11.894-13.277-6.513.865-6.578 9.414-9.022 13.647-3.894a7.782 7.782 0 0 1 1.81 5.274 7.782 7.782 0 0 1-2.18 5.133Z"/><path d="M233.019 147.31a.487.487 0 0 0-.436-.304l-3.19-.101-1.489-2.824a.485.485 0 0 0-.887.063l-1.082 3.003-3.146.544a.485.485 0 0 0-.215.863l2.522 1.957-.454 3.159a.485.485 0 0 0 .753.471l2.641-1.793 2.864 1.408a.486.486 0 0 0 .682-.571l-.89-3.066 2.224-2.289a.486.486 0 0 0 .103-.52Zm-3.222 2.335a.489.489 0 0 0-.118.474l.662 2.279-2.13-1.048v.001a.486.486 0 0 0-.487.034l-1.964 1.333.338-2.349a.485.485 0 0 0-.183-.453l-1.875-1.455c.114-.044 2.584-.383 2.568-.511.122.042.889-2.343.95-2.441l1.107 2.1c.082.154.24.253.414.258l2.373.076-1.655 1.702ZM220.043 106.909a8.683 8.683 0 0 0-.492 7.732.489.489 0 0 0 .922-.081c.918-4.407 6.173-6.729 10.044-4.41a6.836 6.836 0 0 1 3.395 5.847.489.489 0 0 0 .885.274 8.98 8.98 0 0 0 .397-.615c5.386-10.289-8.935-18.555-15.151-8.747Zm14.675 7.545c-1.542-7.333-11.625-8.426-14.705-1.579-1.436-6.477 5.761-11.697 11.493-8.326a7.785 7.785 0 0 1 3.212 9.905Z"/><path d="M231.001 113.263a.486.486 0 0 0-.513-.136l-3.033.996-2.365-2.144a.485.485 0 0 0-.812.362l.01 3.192-2.769 1.587a.487.487 0 0 0 .092.885l3.04.976.653 3.124a.486.486 0 0 0 .87.185l1.868-2.588 3.173.344a.487.487 0 0 0 .445-.771l-1.885-2.575 1.308-2.912a.488.488 0 0 0-.082-.525Zm-2.229 3.296a.485.485 0 0 0 .052.486l1.401 1.916-2.36-.256a.486.486 0 0 0-.446.198l-1.389 1.925-.486-2.323a.486.486 0 0 0-.327-.363l-2.26-.726c.092-.08 2.298-1.244 2.239-1.359.129-.001.034-2.506.057-2.618l1.759 1.594a.488.488 0 0 0 .478.102l2.255-.741-.973 2.165ZM204.99 79.737a8.685 8.685 0 0 0 2.182 7.434.488.488 0 0 0 .84-.391c-.645-4.455 3.498-8.435 7.929-7.58a6.831 6.831 0 0 1 5.19 4.334.49.49 0 0 0 .925-.046c.062-.234.12-.47.163-.713 1.542-11.511-14.743-14.38-17.229-3.038Zm16.371 2.071c-3.957-6.364-13.806-3.942-14.358 3.545-3.565-5.595 1.413-12.962 7.952-11.755a7.789 7.789 0 0 1 6.406 8.21Z"/><path d="M217.461 81.96a.487.487 0 0 0-.529.047l-2.509 1.974-2.956-1.206a.486.486 0 0 0-.639.618l1.101 2.996-2.059 2.439h-.001a.487.487 0 0 0 .39.799l3.19-.122 1.683 2.712a.484.484 0 0 0 .88-.123l.87-3.072 3.1-.762a.486.486 0 0 0 .154-.876l-2.652-1.775.233-3.184a.487.487 0 0 0-.256-.465Zm-.967 3.86a.486.486 0 0 0 .214.439l1.972 1.32-2.305.567a.487.487 0 0 0-.351.34l-.647 2.283-1.252-2.017h.001a.487.487 0 0 0-.431-.23l-2.373.091c.06-.106 1.734-1.954 1.639-2.042.121-.046-.825-2.366-.841-2.48l2.198.897c.161.066.346.04.483-.068l1.866-1.468-.173 2.368ZM181.552 59.352a8.684 8.684 0 0 0 4.592 6.24.489.489 0 0 0 .656-.656c-2.13-3.965.402-9.122 4.859-9.833a6.832 6.832 0 0 1 6.359 2.297.49.49 0 0 0 .854-.36 9.117 9.117 0 0 0-.091-.726c-2.488-11.344-18.772-8.47-17.229 3.038Zm16.091-3.653c-5.895-4.626-14.321 1.018-12.279 8.242-5.264-4.038-3.106-12.663 3.452-13.766a7.784 7.784 0 0 1 8.827 5.524Z"/><path d="M194.03 57.176a.486.486 0 0 0-.48.225l-1.683 2.713-3.19-.122a.486.486 0 0 0-.389.799l2.059 2.439-1.101 2.996a.487.487 0 0 0 .64.617l2.955-1.205 2.509 1.973a.486.486 0 0 0 .785-.417l-.233-3.184 2.652-1.776a.485.485 0 0 0-.154-.876l-3.1-.762-.87-3.071a.485.485 0 0 0-.4-.349Zm.412 3.957a.487.487 0 0 0 .352.34l2.304.566-1.972 1.32a.486.486 0 0 0-.214.44l.173 2.367-1.866-1.467h.001a.487.487 0 0 0-.484-.068l-2.198.896c.019-.12.961-2.43.842-2.48.097-.083-1.585-1.94-1.639-2.042l2.372.09a.486.486 0 0 0 .431-.228l1.251-2.018.647 2.284ZM152.554 48.213a8.687 8.687 0 0 0 6.45 4.292.49.49 0 0 0 .392-.84c-3.358-2.997-2.742-8.71 1.203-10.902a6.831 6.831 0 0 1 6.761-.017.488.488 0 0 0 .679-.63 8.513 8.513 0 0 0-.334-.65c-6.217-9.81-20.537-1.54-15.151 8.747Zm13.872-8.936c-7.121-2.332-13.109 5.855-8.72 11.944-6.327-1.994-7.249-10.837-1.464-14.116a7.785 7.785 0 0 1 10.184 2.172Z"/><path d="M163.537 41.9a.485.485 0 0 0-.375.376l-.653 3.125-3.04.976a.486.486 0 0 0-.093.884l2.77 1.587-.01 3.192a.484.484 0 0 0 .812.362l2.365-2.143 3.033.996a.486.486 0 0 0 .595-.66l-1.308-2.913 1.884-2.576a.486.486 0 0 0-.444-.77l-3.173.344-1.868-2.589a.487.487 0 0 0-.495-.19Zm1.74 3.578a.486.486 0 0 0 .446.199l2.36-.256-1.402 1.915a.488.488 0 0 0-.051.486l.973 2.166-2.256-.741h.001a.486.486 0 0 0-.478.101l-1.759 1.594c-.023-.12.072-2.611-.057-2.618.063-.112-2.153-1.282-2.239-1.358l2.26-.726a.487.487 0 0 0 .327-.363l.486-2.324 1.389 1.925ZM121.496 47.663a8.685 8.685 0 0 0 7.529 1.828.488.488 0 0 0 .081-.923c-4.18-1.67-5.555-7.247-2.598-10.657a6.83 6.83 0 0 1 6.347-2.328.489.489 0 0 0 .423-.824 8.856 8.856 0 0 0-.536-.498c-9.198-7.09-19.825 5.578-11.246 13.402Zm9.98-13.142c-7.49.245-10.317 9.986-4.11 14.207-6.628.29-10.518-7.704-6.203-12.764a7.782 7.782 0 0 1 10.312-1.443h.001Z"/><path d="M129.657 37.975a.485.485 0 0 0-.223.481l.454 3.16-2.522 1.957a.485.485 0 0 0 .215.863l3.146.544 1.082 3.003a.485.485 0 0 0 .887.062l1.489-2.823 3.191-.102a.485.485 0 0 0 .333-.824l-2.225-2.289.89-3.065a.486.486 0 0 0-.682-.572l-2.864 1.409-2.64-1.794a.487.487 0 0 0-.531-.01Zm2.859 2.767a.488.488 0 0 0 .488.034l2.129-1.047-.662 2.279a.488.488 0 0 0 .119.474l1.654 1.702-2.373.075h.001a.488.488 0 0 0-.415.259l-1.107 2.1c-.063-.105-.826-2.48-.949-2.441.021-.127-2.462-.469-2.569-.511l1.876-1.455a.487.487 0 0 0 .182-.453l-.337-2.35 1.963 1.334ZM92.123 57.77c2.56.937 5.41.62 7.7-.859a.489.489 0 0 0-.24-.894c-4.499-.139-7.698-4.91-6.086-9.126a6.831 6.831 0 0 1 5.169-4.358.49.49 0 0 0 .115-.92c-.22-.1-.442-.199-.674-.283-11.069-3.518-16.722 12.021-5.984 16.44Zm4.883-15.763c-6.954 2.792-6.28 12.912.998 14.755-6.13 2.54-12.52-3.642-10.196-9.872a7.785 7.785 0 0 1 9.198-4.883Z"/><path d="M96.478 45.874a.486.486 0 0 0-.045.529l1.508 2.814-1.7 2.701a.486.486 0 0 0 .497.737l3.141-.564 2.044 2.451a.487.487 0 0 0 .855-.244l.434-3.163 2.963-1.186a.486.486 0 0 0 .031-.889l-2.873-1.39-.212-3.184a.486.486 0 0 0-.836-.305l-2.21 2.304-3.094-.783a.486.486 0 0 0-.502.172Zm3.633 1.622a.487.487 0 0 0 .47-.134l1.643-1.713.158 2.368a.486.486 0 0 0 .273.405l2.137 1.034-2.204.882a.487.487 0 0 0-.301.385l-.322 2.351c-.095-.076-1.624-2.046-1.727-1.968-.024-.127-2.474.401-2.588.398l1.264-2.009a.486.486 0 0 0 .017-.488l-1.121-2.093 2.301.582Z"/></g><g opacity=".1" stroke="#058D59" stroke-width="2"><path d="m49.56 40.635 2.195 3.515a2 2 0 0 0 1.627.939l4.14.143-1.945 3.658a2 2 0 0 0 0 1.879l1.946 3.658-4.141.143a2 2 0 0 0-1.627.94l-2.195 3.514-2.195-3.514a2 2 0 0 0-1.627-.94l-4.14-.143 1.946-3.658a2 2 0 0 0 0-1.879l-1.946-3.658 4.14-.143a2 2 0 0 0 1.627-.94l2.195-3.514ZM24.382 71.83l3.173 2.664a2 2 0 0 0 1.838.39l3.982-1.143-.72 4.08a2 2 0 0 0 .58 1.787l2.981 2.878-3.893 1.416a2 2 0 0 0-1.258 1.396l-1 4.02-3.174-2.664a2 2 0 0 0-1.838-.39l-3.982 1.143.72-4.08a2 2 0 0 0-.58-1.787l-2.981-2.878 3.893-1.416a2 2 0 0 0 1.257-1.396l1.002-4.02ZM10.075 109.278l3.842 1.553a2.001 2.001 0 0 0 1.868-.196l3.434-2.318.576 4.103a2 2 0 0 0 1.104 1.52l3.725 1.815-3.266 2.55a2.001 2.001 0 0 0-.764 1.717l.29 4.133-3.841-1.553a1.999 1.999 0 0 0-1.869.196l-3.434 2.318-.575-4.103a1.999 1.999 0 0 0-1.105-1.52l-3.724-1.816 3.265-2.55c.525-.409.811-1.052.764-1.716l-.29-4.133ZM8.041 149.314l4.133.29a2 2 0 0 0 1.717-.764l2.55-3.266 1.815 3.725a1.999 1.999 0 0 0 1.52 1.104l4.103.576-2.318 3.434a2 2 0 0 0-.196 1.868l1.553 3.842-4.133-.29a1.997 1.997 0 0 0-1.716.764l-2.55 3.265-1.816-3.724a1.999 1.999 0 0 0-1.52-1.104l-4.103-.576 2.318-3.434a2.001 2.001 0 0 0 .196-1.869l-1.553-3.841ZM18.479 188.019l4.02-1.001a2 2 0 0 0 1.396-1.257l1.416-3.894 2.878 2.981a1.999 1.999 0 0 0 1.787.581l4.08-.721-1.143 3.983a2.001 2.001 0 0 0 .39 1.838l2.664 3.173-4.02 1.001a2 2 0 0 0-1.396 1.257l-1.416 3.894-2.878-2.981a2.001 2.001 0 0 0-1.787-.581l-4.08.721 1.143-3.983a1.999 1.999 0 0 0-.39-1.837l-2.664-3.174ZM40.366 221.605l3.514-2.195a2 2 0 0 0 .94-1.627l.143-4.141 3.658 1.946a1.997 1.997 0 0 0 1.879 0l3.657-1.946.144 4.141c.023.665.375 1.275.94 1.627l3.514 2.195-3.515 2.195a1.999 1.999 0 0 0-.94 1.627l-.143 4.14-3.657-1.946a2.003 2.003 0 0 0-1.88 0l-3.657 1.946-.144-4.14a2 2 0 0 0-.939-1.627l-3.514-2.195ZM71.56 246.783l2.664-3.173a2 2 0 0 0 .39-1.838l-1.142-3.982 4.08.72a2 2 0 0 0 1.787-.58l2.877-2.982 1.416 3.894c.228.625.75 1.097 1.396 1.257l4.02 1.002-2.663 3.173a2 2 0 0 0-.39 1.838l1.142 3.982-4.08-.72a2 2 0 0 0-1.787.58l-2.877 2.981-1.416-3.893a2 2 0 0 0-1.396-1.258l-4.02-1.001ZM109.008 261.09l1.554-3.842a2 2 0 0 0-.197-1.868l-2.318-3.434 4.103-.576a1.998 1.998 0 0 0 1.52-1.104l1.816-3.725 2.55 3.266a1.998 1.998 0 0 0 1.716.764l4.133-.29-1.553 3.841a2.002 2.002 0 0 0 .196 1.869l2.318 3.434-4.103.576a2 2 0 0 0-1.52 1.104l-1.815 3.724-2.55-3.265a2.001 2.001 0 0 0-1.716-.765l-4.134.291ZM149.044 263.124l.29-4.133a1.998 1.998 0 0 0-.764-1.717l-3.265-2.55 3.724-1.815a2 2 0 0 0 1.104-1.52l.576-4.103 3.434 2.318a2.002 2.002 0 0 0 1.869.196l3.841-1.553-.29 4.133c-.047.664.24 1.307.764 1.716l3.266 2.55-3.725 1.816a1.998 1.998 0 0 0-1.104 1.52l-.576 4.103-3.434-2.318a1.998 1.998 0 0 0-1.868-.196l-3.842 1.553ZM187.75 252.686l-1.002-4.02a1.997 1.997 0 0 0-1.257-1.396l-3.893-1.416 2.981-2.878a2.001 2.001 0 0 0 .58-1.787l-.72-4.08 3.982 1.143c.64.184 1.328.037 1.838-.39l3.173-2.664 1.001 4.02a1.998 1.998 0 0 0 1.258 1.396l3.893 1.416-2.981 2.878a2 2 0 0 0-.58 1.787l.72 4.08-3.982-1.143a1.998 1.998 0 0 0-1.838.39l-3.173 2.664ZM221.335 230.799l-2.194-3.514a2.002 2.002 0 0 0-1.627-.939l-4.141-.144 1.946-3.658a2.003 2.003 0 0 0 0-1.879l-1.946-3.657 4.141-.144a2.002 2.002 0 0 0 1.627-.939l2.194-3.515 2.195 3.515a2 2 0 0 0 1.627.939l4.141.144-1.946 3.657a1.997 1.997 0 0 0 0 1.879l1.946 3.658-4.141.144a2 2 0 0 0-1.627.939l-2.195 3.514ZM246.514 199.605l-3.174-2.664a2 2 0 0 0-1.837-.391l-3.983 1.143.721-4.08a2.002 2.002 0 0 0-.581-1.787l-2.981-2.877 3.894-1.416a2.003 2.003 0 0 0 1.257-1.396l1.001-4.021 3.173 2.664c.51.428 1.199.574 1.838.391l3.983-1.143-.721 4.08a1.999 1.999 0 0 0 .581 1.787l2.981 2.877-3.894 1.416a2.003 2.003 0 0 0-1.257 1.396l-1.001 4.021ZM260.82 162.157l-3.841-1.553a2 2 0 0 0-1.869.196l-3.434 2.318-.575-4.103a2.001 2.001 0 0 0-1.105-1.52l-3.724-1.816 3.265-2.55a1.999 1.999 0 0 0 .765-1.716l-.291-4.133 3.842 1.553a2 2 0 0 0 1.868-.196l3.434-2.318.576 4.103a2 2 0 0 0 1.104 1.52l3.725 1.815-3.266 2.55a2.001 2.001 0 0 0-.764 1.717l.29 4.133ZM262.854 122.121l-4.133-.291a1.999 1.999 0 0 0-1.716.765l-2.55 3.265-1.816-3.724a2.001 2.001 0 0 0-1.52-1.105l-4.103-.575 2.318-3.434a2 2 0 0 0 .196-1.869l-1.553-3.841 4.133.29a2.001 2.001 0 0 0 1.717-.764l2.55-3.266 1.815 3.725a2 2 0 0 0 1.52 1.104l4.103.576-2.318 3.434a2 2 0 0 0-.196 1.868l1.553 3.842ZM252.417 83.415l-4.021 1.001A2 2 0 0 0 247 85.674l-1.416 3.893-2.877-2.98a2 2 0 0 0-1.787-.581l-4.08.72 1.143-3.982a2 2 0 0 0-.391-1.838l-2.664-3.173 4.02-1.002a2.001 2.001 0 0 0 1.397-1.257l1.416-3.893 2.877 2.98a2 2 0 0 0 1.787.581l4.08-.72-1.143 3.982a1.998 1.998 0 0 0 .391 1.838l2.664 3.173ZM230.53 49.83l-3.515 2.194a2 2 0 0 0-.939 1.627l-.143 4.141-3.658-1.946a2 2 0 0 0-1.879 0l-3.658 1.946-.143-4.14a2.001 2.001 0 0 0-.94-1.628l-3.514-2.194 3.514-2.195a2 2 0 0 0 .94-1.627l.143-4.141 3.658 1.946a2 2 0 0 0 1.879 0l3.658-1.946.143 4.14a2 2 0 0 0 .939 1.628l3.515 2.195ZM199.335 24.651l-2.664 3.174a2 2 0 0 0-.39 1.837l1.143 3.983-4.08-.72a2 2 0 0 0-1.787.58l-2.878 2.981-1.416-3.894a1.998 1.998 0 0 0-1.396-1.257l-4.02-1.001 2.664-3.174a2 2 0 0 0 .39-1.837l-1.143-3.983 4.08.72a2 2 0 0 0 1.787-.58l2.878-2.981 1.416 3.894c.227.625.75 1.096 1.396 1.257l4.02 1.001ZM161.887 10.345l-1.553 3.841a2.002 2.002 0 0 0 .196 1.869l2.318 3.434-4.103.575a2 2 0 0 0-1.52 1.105l-1.815 3.724-2.55-3.265a2.001 2.001 0 0 0-1.717-.765l-4.133.29 1.553-3.84a1.999 1.999 0 0 0-.196-1.87l-2.318-3.433 4.103-.576a1.999 1.999 0 0 0 1.52-1.104l1.816-3.725 2.55 3.266c.409.524 1.052.81 1.716.764l4.133-.29ZM121.851 8.31l-.29 4.134a2 2 0 0 0 .764 1.716l3.266 2.55-3.725 1.816a1.999 1.999 0 0 0-1.104 1.52l-.575 4.103-3.435-2.318a1.999 1.999 0 0 0-1.868-.196l-3.842 1.553.291-4.133a2 2 0 0 0-.765-1.717l-3.265-2.55 3.724-1.815a2.002 2.002 0 0 0 1.105-1.52l.575-4.103 3.434 2.318a2.001 2.001 0 0 0 1.869.196l3.841-1.553ZM83.146 18.748l1.001 4.02a2 2 0 0 0 1.257 1.397l3.894 1.416-2.981 2.877a2 2 0 0 0-.58 1.787l.72 4.08-3.983-1.143a2 2 0 0 0-1.838.39l-3.173 2.665-1.001-4.02a2 2 0 0 0-1.257-1.397l-3.894-1.416 2.981-2.877a2 2 0 0 0 .58-1.787l-.72-4.08 3.983 1.143a2 2 0 0 0 1.837-.39l3.174-2.665Z"/></g><path fill-rule="evenodd" clip-rule="evenodd" d="M136.451 79.796c15.138 0 28.844 6.136 38.765 16.057 9.803 9.804 15.911 23.304 16.054 38.228v.031l.001.204.002.302-.003.505v.033c-.143 14.924-6.251 28.422-16.054 38.226-9.921 9.921-23.625 16.058-38.765 16.058-15.138 0-28.844-6.137-38.765-16.058-9.92-9.921-16.057-23.628-16.057-38.766 0-15.138 6.137-28.844 16.057-38.764 9.921-9.921 23.627-16.056 38.765-16.056Zm31.509 31.508c2.078 0 4.095.274 6.014.783-5.653-5.487-13.363-8.865-21.864-8.865-8.67 0-16.519 3.513-22.199 9.194-5.681 5.682-9.194 13.531-9.194 22.202a31.29 31.29 0 0 0 9.194 22.199c5.681 5.682 13.531 9.195 22.199 9.195 8.501 0 16.212-3.379 21.864-8.865-1.918.51-3.934.783-6.012.783a23.234 23.234 0 0 1-16.483-6.829 23.24 23.24 0 0 1-6.828-16.485 23.244 23.244 0 0 1 6.828-16.486 23.238 23.238 0 0 1 16.481-6.826Zm10.99 12.323a15.503 15.503 0 0 0-10.992-4.551c-4.292 0-8.178 1.74-10.991 4.551a15.495 15.495 0 0 0-4.552 10.992 15.5 15.5 0 0 0 4.552 10.992 15.499 15.499 0 0 0 10.991 4.552 15.5 15.5 0 0 0 10.992-4.552 15.503 15.503 0 0 0 4.552-10.992l-.002-.2a15.49 15.49 0 0 0-4.55-10.792Zm-26.842-28.176c4.883 0 9.555.894 13.867 2.527a46.862 46.862 0 0 0-29.524-10.412c-12.992 0-24.756 5.267-33.271 13.781-8.514 8.513-13.78 20.278-13.78 33.271 0 12.994 5.265 24.757 13.78 33.272 8.515 8.514 20.277 13.781 33.271 13.781a46.845 46.845 0 0 0 29.524-10.414 39.066 39.066 0 0 1-13.867 2.527c-10.814 0-20.607-4.385-27.692-11.472-7.087-7.087-11.471-16.878-11.471-27.693 0-10.814 4.384-20.607 11.471-27.694 7.085-7.09 16.878-11.474 27.692-11.474Z" fill="#05B571"/></svg>