<svg width="33" height="34" fill="none" xmlns="http://www.w3.org/2000/svg"><path fill-rule="evenodd" clip-rule="evenodd" d="M16.729.849c4.45 0 8.48 1.804 11.396 4.72a16.065 16.065 0 0 1 4.72 11.238V17.123a16.064 16.064 0 0 1-4.72 11.238 16.066 16.066 0 0 1-11.396 4.72c-4.45 0-8.48-1.804-11.396-4.72a16.067 16.067 0 0 1-4.72-11.396c0-4.45 1.803-8.48 4.72-11.396A16.066 16.066 0 0 1 16.729.849Zm9.263 9.262c.611 0 1.204.08 1.768.23a9.2 9.2 0 0 0-6.428-2.606 9.199 9.199 0 0 0-6.526 2.703 9.201 9.201 0 0 0-2.703 6.527 9.199 9.199 0 0 0 2.703 6.526 9.2 9.2 0 0 0 6.526 2.703c2.5 0 4.767-.993 6.428-2.606a6.868 6.868 0 0 1-6.613-1.777 6.833 6.833 0 0 1-2.008-4.846c0-1.893.768-3.607 2.008-4.847a6.831 6.831 0 0 1 4.845-2.007Zm3.23 3.623a4.557 4.557 0 0 0-3.23-1.338 4.557 4.557 0 0 0-3.232 1.338 4.555 4.555 0 0 0-1.338 3.231c0 1.262.512 2.405 1.338 3.232a4.557 4.557 0 0 0 3.232 1.338 4.557 4.557 0 0 0 3.23-1.338 4.557 4.557 0 0 0 1.339-3.232v-.058a4.553 4.553 0 0 0-1.338-3.173Zm-7.89-8.283c1.435 0 2.809.263 4.076.743a13.777 13.777 0 0 0-8.68-3.061c-3.819 0-7.277 1.548-9.78 4.051a13.79 13.79 0 0 0-4.052 9.781c0 3.82 1.548 7.278 4.052 9.781a13.79 13.79 0 0 0 9.78 4.052c3.288 0 6.307-1.147 8.68-3.062-1.267.48-2.64.743-4.076.743-3.18 0-6.058-1.289-8.141-3.372a11.477 11.477 0 0 1-3.373-8.142c0-3.179 1.29-6.058 3.373-8.141a11.475 11.475 0 0 1 8.14-3.373Z" fill="#04D484"/></svg>